<svg width="512" height="512" viewBox="0 0 512 512" fill="none" xmlns="http://www.w3.org/2000/svg" xmlns:xlink="http://www.w3.org/1999/xlink" class=""><rect id="«r9»" width="512" height="512" x="0" y="0" rx="128" fill="url(#«ra»)" stroke="#FFFFFF" stroke-width="0" stroke-opacity="100%" paint-order="stroke"></rect><clipPath id="clip"><use xlink:href="#«r9»"></use></clipPath><defs><radialGradient id="«ra»" cx="50%" cy="50%" r="100%" fx="50%" fy="0%" gradientUnits="objectBoundingBox"><stop stop-color="#3A3A3A"></stop><stop offset="1" stop-color="#000000"></stop></radialGradient><radialGradient id="«rb»" cx="0" cy="0" r="1" gradientUnits="userSpaceOnUse" gradientTransform="translate(256) rotate(90) scale(512)"><stop stop-color="white"></stop><stop offset="1" stop-color="white" stop-opacity="0"></stop></radialGradient></defs><svg xmlns="http://www.w3.org/2000/svg" fill="none" viewBox="0 0 16 16" width="352" height="352" x="80" y="80" alignment-baseline="middle" style="color: rgb(255, 255, 255);"><path fill="currentColor" d="M8 .288A7.709 7.709 0 0 0 .288 8 7.709 7.709 0 0 0 8 15.713 7.709 7.709 0 0 0 15.713 8 7.709 7.709 0 0 0 8 .288Zm4.163 4.462c-.363.013-.6-.2-.613-.525 0-.125.025-.225.113-.35.075-.15.1-.175.1-.237-.013-.2-.313-.213-.4-.213C10.2 3.463 9.9 5.025 9.65 6.3l-.125.675c.663.1 1.138-.025 1.4-.187.375-.238-.1-.488-.05-.763a.562.562 0 0 1 .513-.425c.287-.012.487.288.475.588-.013.487-.663 1.175-1.975 1.137-.163 0-.3-.012-.438-.025L9.2 8.663c-.225 1.025-.512 2.437-1.562 3.662-.9 1.075-1.813 1.238-2.225 1.25-.763.025-1.275-.387-1.288-.925-.012-.525.45-.812.75-.825.413-.012.688.288.7.625.013.288-.137.375-.237.438-.063.05-.163.112-.163.225 0 .05.063.162.225.162.325-.012.538-.175.688-.275.75-.625 1.037-1.712 1.412-3.675l.075-.475c.125-.637.275-1.362.488-2.075-.525-.4-.838-.887-1.55-1.075-.488-.137-.775-.025-.988.238-.25.312-.162.712.075.95l.388.437c.487.563.75.988.65 1.575-.138.913-1.25 1.625-2.563 1.225C2.95 9.775 2.75 8.988 2.888 8.55c.112-.387.425-.462.725-.362.325.1.45.487.35.787-.013.038-.025.088-.063.15-.037.088-.1.15-.137.25-.075.238.25.4.475.475.5.15.987-.112 1.112-.512.113-.375-.125-.638-.212-.738l-.475-.512c-.213-.238-.7-.913-.463-1.675.088-.288.275-.6.55-.8.575-.438 1.213-.5 1.813-.325.775.225 1.15.737 1.637 1.137.275-.787.65-1.575 1.213-2.225.512-.6 1.187-1.025 1.975-1.062.787-.025 1.375.325 1.4.887-.013.25-.15.713-.625.725Z"></path></svg></svg>